<svg xmlns="http://www.w3.org/2000/svg" viewBox="0 0 1200 160"><rect width="1200" height="160" rx="16" fill="#f7f7f5"/><g fill="none" stroke="#111" opacity=".12"><path d="M40 125H1160M40 35H1160"/></g><g font-family="monospace" fill="#111"><text x="60" y="55" font-size="18">04 — EMBEDDED SYSTEMS</text><text x="60" y="86" font-size="14">C  •  PYTHON  •  RASPBERRY PI  •  ESP32  •  LINUX</text></g><g transform="translate(760 20)" fill="none" stroke="#111" stroke-width="2"><rect x="20" y="25" width="320" height="105" rx="10"/><rect x="125" y="55" width="110" height="50" rx="6"/><path d="M125 65H85V45H55M125 80H65M125 95H85V115H55M235 65H275V45H305M235 80H295M235 95H275V115H305"/><path d="M75 25V5M115 25V5M155 25V5M195 25V5M235 25V5M275 25V5M75 130V150M115 130V150M155 130V150M195 130V150M235 130V150M275 130V150"/><circle cx="180" cy="80" r="12" fill="#111"><animate attributeName="r" values="9;15;9" dur="1.8s" repeatCount="indefinite"/></circle><circle cx="55" cy="45" r="4" fill="#111"><animate attributeName="cx" values="55;95;55" dur="2s" repeatCount="indefinite"/></circle></g></svg>